<?xml version="1.0" encoding="utf-8"?>
<!-- Generator: Adobe Illustrator 26.3.1, SVG Export Plug-In . SVG Version: 6.00 Build 0)  -->
<svg version="1.1" id="Layer_1" xmlns="http://www.w3.org/2000/svg" xmlns:xlink="http://www.w3.org/1999/xlink" x="0px" y="0px"
	 viewBox="0 0 720 576" style="enable-background:new 0 0 720 576;" xml:space="preserve">
<style type="text/css">
	.st0{fill:#007256;}
	.st1{fill:#E4C520;}
	.st2{fill:#65AC45;}
	.st3{font-family:'GlitchSlap';}
	.st4{font-size:21.316px;}
	.st5{fill:none;stroke:#000000;stroke-width:3.5;stroke-miterlimit:10;}
</style>
<g>
	<path class="st0" d="M618.64,246.36c2.1,0,3.8-1.7,3.8-3.8v-48.79c0-30.09-14.86-45.14-44.59-45.14
		c-29.66,0-44.48,15.05-44.48,45.14v37.03c0,17.44,4.71,34.34,14.23,44.15c8.4,8.65,19.1,18.14,28.65,25.16
		c6.03,4.44,15.18,15.62,15.18,25.12c0,9.72-4.49,14.57-13.48,14.57c-9.06,0-13.93-4.86-13.58-14.57
		c0.23-6.36,4.47-15.62,6.78-20.19c0.82-1.63,0.35-3.62-1.1-4.73c-10.1-7.7-15.85-12.62-19.02-15.53c-1.85-1.7-4.8-1.15-5.93,1.1
		c-4.61,9.16-11.72,23.82-11.72,39.35c0,19.26,8.45,35.08,25.29,41.77c1.48,0.59,2.5,1.97,2.5,3.56l0,8.15
		c0,1.87-1.52,3.39-3.39,3.39h-16.85c-1.87,0-3.39,1.52-3.39,3.39v24.28c0,1.87,1.52,3.39,3.39,3.39h16.8
		c1.89,0,3.43,1.54,3.43,3.43v14.82c0,1.87,1.52,3.39,3.39,3.39h24.28c1.87,0,3.39-1.52,3.39-3.39V416.6c0-1.89,1.54-3.43,3.43-3.43
		h16.8c1.87,0,3.39-1.52,3.39-3.39V385.5c0-1.87-1.52-3.39-3.39-3.39h-16.85c-1.87,0-3.39-1.52-3.39-3.39v-6.7
		c0-1.68,1.1-3.19,2.71-3.63c18.32-5.07,27.51-19.44,27.51-43.15c0-20.99-9.64-38.39-28.92-52.18c-0.08-0.06-0.16-0.11-0.25-0.16
		c-19.27-11.67-28.9-25.92-28.9-42.76v-36.37c0-9.71,4.45-14.57,13.37-14.57h0.22c8.98,0.07,13.48,4.93,13.48,14.57v48.79
		c0,2.1,1.7,3.8,3.8,3.8H618.64z"/>
	<path class="st0" d="M96.76,193.46c0-30.15,14.85-45.22,44.56-45.22c29.78,0,44.67,15.08,44.67,45.22v48.91
		c0,2.08-1.69,3.77-3.77,3.77H158.7c-2.08,0-3.77-1.69-3.77-3.77v-48.91c0-9.66-4.5-14.52-13.5-14.6h-0.22
		c-8.93,0-13.39,4.87-13.39,14.6v36.44c0,16.87,9.65,31.15,28.96,42.84c0.08,0.05,0.17,0.11,0.25,0.17
		c19.31,13.82,28.97,31.24,28.97,52.27c0,30.22-14.86,45.33-44.56,45.33c-29.78-0.07-44.67-15.18-44.67-45.33V313.8
		c0-2.08,1.69-3.77,3.77-3.77h23.52c2.08,0,3.77,1.69,3.77,3.77v11.37c0,9.73,4.54,14.6,13.61,14.6c9,0,13.5-4.87,13.5-14.6
		c0-10.39-9.7-22.54-29.09-36.44c-19.39-13.83-29.09-33.22-29.09-58.17V193.46z"/>
	<path class="st0" d="M267.37,323.02l-18.91,45.47c-0.51,1.22-1.71,2.02-3.03,2.02h-22.66c-1.68,0-3.09-1.27-3.27-2.95l-21.98-213.5
		c-0.2-1.94,1.32-3.62,3.27-3.62h25.32c1.7,0,3.12,1.3,3.27,2.99L243,306.61c0.19,2.11,3.06,2.6,3.93,0.67l20.37-45.02
		c1.18-2.61,4.9-2.56,6.01,0.07l19.31,45.61c0.84,1.98,3.76,1.52,3.95-0.62l13.59-153.88c0.15-1.69,1.57-2.99,3.27-2.99h25.44
		c1.95,0,3.46,1.68,3.27,3.62l-21.87,213.5c-0.17,1.68-1.58,2.95-3.27,2.95h-23.75c-1.35,0-2.56-0.82-3.05-2.07l-18.02-45.38
		C271.33,320.89,268.27,320.87,267.37,323.02z"/>
	<path class="st0" d="M515.64,325.17c0,30.15-14.89,45.26-44.67,45.33c-29.71,0-44.56-15.11-44.56-45.33V193.46
		c0-30.15,14.85-45.22,44.56-45.22c29.78,0,44.67,15.08,44.67,45.22v48.91c0,2.08-1.69,3.77-3.77,3.77h-23.52
		c-2.08,0-3.77-1.69-3.77-3.77v-48.91c0-9.66-4.5-14.52-13.5-14.6h-0.22c-8.93,0-13.39,4.87-13.39,14.6v131.71
		c0,9.73,4.5,14.6,13.5,14.6c9.07,0,13.61-4.87,13.61-14.6v-31.24c0-2.08,1.69-3.77,3.77-3.77h23.52c2.08,0,3.77,1.69,3.77,3.77
		V325.17z"/>
	<path class="st0" d="M378.9,228.61h23.64c1.85,0,3.23,1.71,2.83,3.52l-29.33,136.1c-0.29,1.33-1.47,2.28-2.83,2.28h-23.64
		c-1.85,0-3.23-1.71-2.83-3.52l29.33-136.1C376.36,229.55,377.54,228.61,378.9,228.61z"/>
	<circle class="st1" cx="395.73" cy="203" r="16.21"/>
	<path class="st2" d="M636.26,413.6c7.28-0.22,10.92-30.97,10.92-40.58v-62.75c0-14.71,1.96-25.84,11.07-33.08
		c-9.12-7.17-11.07-17.95-11.07-32.66v-62.75c0-9.68-3.64-40.36-10.92-40.58l0,0c25.85,0.37,38.77,15.6,38.77,45.68v62.86
		c0,14.32,14.73,27.45,14.73,27.45s-14.73,14.67-14.73,27.87v62.75C675.03,397.96,662.1,413.23,636.26,413.6L636.26,413.6z"/>
	<path class="st2" d="M83.74,413.6c-25.85-0.37-38.77-15.63-38.77-45.79v-62.75c0-13.2-14.73-27.87-14.73-27.87
		s14.73-13.13,14.73-27.45v-62.86c0-30.08,12.92-45.31,38.77-45.68l0,0c-7.28,0.22-10.92,30.9-10.92,40.58v62.75
		c0,14.71-1.96,25.49-11.07,32.66c9.12,7.24,11.07,18.37,11.07,33.08v62.75C72.82,382.63,76.46,413.37,83.74,413.6L83.74,413.6z"/>
	<text transform="matrix(1 0 0 1 96.7554 403.7173)" class="st2 st3 st4">UVM Society of Women in Computer Science</text>
</g>
</svg>
